<?xml version="1.0" encoding="UTF-8"?>
<svg xmlns="http://www.w3.org/2000/svg" viewBox="0 0 705.03 676.23">
  <g id="a" data-name="Capa 1"/>
  <g id="b" data-name="Capa 2">
    <g id="c" data-name="Capa 1">
      <g>
        <g>
          <polygon points="479.06 192.98 466.36 240.38 276.78 189.58 289.48 142.19 313.17 148.54 325.87 101.14 468.06 139.24 455.36 186.63 479.06 192.98" fill="#bf7a44"/>
          <polygon points="599.25 123.59 586.55 170.99 207.38 69.39 220.08 22 314.87 47.4 327.57 0 517.15 50.8 504.46 98.19 599.25 123.59" fill="#ffefb0"/>
          <rect x="425.95" y="287.36" width="49.07" height="24.53" transform="translate(44.48 657.21) rotate(-75)" fill="#00700d"/>
          <path d="M158.29,157.83l-25.4,94.79,71.09,19.05-25.4,94.79,284.37,76.2,25.4-94.79,71.09,19.05,25.4-94.79L158.29,157.83Zm297.69,168.66l-23.7-6.35,12.7-47.4,23.7,6.35-12.7,47.4Z" fill="#00700d"/>
          <polygon points="132.04 303.19 106.64 397.98 0 369.41 63.5 132.43 158.29 157.83 120.19 300.02 132.04 303.19" fill="#bf7a44"/>
          <polygon points="705.03 202.74 654.24 392.32 559.45 366.92 588.02 260.28 576.17 257.1 598.39 174.16 705.03 202.74" fill="#bf7a44"/>
          <polygon points="447.08 501.9 405.81 655.94 311.02 630.54 301.49 666.08 230.4 647.04 249.45 575.94 320.54 594.99 352.29 476.5 447.08 501.9" fill="#bf7a44"/>
          <rect x="63.41" y="501.9" width="233.07" height="98.13" transform="translate(-398.83 582.18) rotate(-75)" fill="#bf7a44"/>
          <rect x="392.92" y="475.57" width="49.07" height="36.8" transform="translate(-167.72 769.35) rotate(-75)" fill="#fff"/>
          <path d="M178.58,366.46l-25.4,94.79,284.37,76.2,25.4-94.79-284.37-76.2Zm250.3,155.96l-35.55-9.52,12.7-47.4,35.55,9.52-12.7,47.4Z" fill="#fff"/>
          <rect x="425.95" y="287.36" width="49.07" height="24.53" transform="translate(44.48 657.21) rotate(-75)" fill="#00930a"/>
          <rect x="392.92" y="475.57" width="49.07" height="36.8" transform="translate(-167.72 769.35) rotate(-75)" fill="#fff"/>
        </g>
        <rect x="191.01" y="272.04" width="15.75" height="98.13" transform="translate(89.89 -40.54) rotate(15)" fill="#005906"/>
        <rect x="458.74" y="343.97" width="17.2" height="98.13" transform="translate(117.65 -107.57) rotate(15)" fill="#005906"/>
      </g>
    </g>
  </g>
</svg>